<svg id="d-er-06-turnos" width="312.65625" xmlns="http://www.w3.org/2000/svg" class="erDiagram" height="878" viewBox="0 0 312.65625 878" role="graphics-document document" aria-roledescription="er"><style>#d-er-06-turnos{font-size:15px;fill:#1C1917;}@keyframes edge-animation-frame{from{stroke-dashoffset:0;}}@keyframes dash{to{stroke-dashoffset:0;}}#d-er-06-turnos .edge-animation-slow{stroke-dasharray:9,5!important;stroke-dashoffset:900;animation:dash 50s linear infinite;stroke-linecap:round;}#d-er-06-turnos .edge-animation-fast{stroke-dasharray:9,5!important;stroke-dashoffset:900;animation:dash 20s linear infinite;stroke-linecap:round;}#d-er-06-turnos .error-icon{fill:#FAFAF9;}#d-er-06-turnos .error-text{fill:#050506;stroke:#050506;}#d-er-06-turnos .edge-thickness-normal{stroke-width:1px;}#d-er-06-turnos .edge-thickness-thick{stroke-width:3.5px;}#d-er-06-turnos .edge-pattern-solid{stroke-dasharray:0;}#d-er-06-turnos .edge-thickness-invisible{stroke-width:0;fill:none;}#d-er-06-turnos .edge-pattern-dashed{stroke-dasharray:3;}#d-er-06-turnos .edge-pattern-dotted{stroke-dasharray:2;}#d-er-06-turnos .marker{fill:#57534E;stroke:#57534E;}#d-er-06-turnos .marker.cross{stroke:#57534E;}#d-er-06-turnos svg{font-size:15px;}#d-er-06-turnos p{margin:0;}#d-er-06-turnos .entityBox{fill:#E6F4F4;stroke:#0F6E6E;}#d-er-06-turnos .relationshipLabelBox{fill:#FAFAF9;opacity:0.7;background-color:#FAFAF9;}#d-er-06-turnos .relationshipLabelBox rect{opacity:0.5;}#d-er-06-turnos .labelBkg{background-color:rgba(250, 250, 249, 0.5);}#d-er-06-turnos .edgeLabel{background-color:#FFFFFF;}#d-er-06-turnos .edgeLabel .label rect{fill:#FFFFFF;}#d-er-06-turnos .edgeLabel .label text{fill:#1C1917;}#d-er-06-turnos .edgeLabel .label{fill:#0F6E6E;font-size:14px;}#d-er-06-turnos .label{color:#1C1917;}#d-er-06-turnos .edge-pattern-dashed{stroke-dasharray:8,8;}#d-er-06-turnos .node rect,#d-er-06-turnos .node circle,#d-er-06-turnos .node ellipse,#d-er-06-turnos .node polygon{fill:#E6F4F4;stroke:#0F6E6E;stroke-width:1px;}#d-er-06-turnos .relationshipLine{stroke:#57534E;stroke-width:1px;fill:none;}#d-er-06-turnos .marker{fill:none!important;stroke:#57534E!important;stroke-width:1;}#d-er-06-turnos [data-look=neo].labelBkg{background-color:rgba(250, 250, 249, 0.5);}#d-er-06-turnos .cluster rect{fill:#F5F5F4;stroke:#A8A29E;stroke-width:1px;}#d-er-06-turnos .cluster text{fill:#050506;}#d-er-06-turnos .cluster-label text{fill:#050506;}#d-er-06-turnos .node .neo-node{stroke:#0F6E6E;}#d-er-06-turnos [data-look="neo"].node rect,#d-er-06-turnos [data-look="neo"].cluster rect,#d-er-06-turnos [data-look="neo"].node polygon{stroke:url(#d-er-06-turnos-gradient);filter:drop-shadow( 1px 2px 2px rgba(185,185,185,1));}#d-er-06-turnos [data-look="neo"].swimlane.cluster rect{filter:none;}#d-er-06-turnos [data-look="neo"].node path{stroke:url(#d-er-06-turnos-gradient);stroke-width:1px;}#d-er-06-turnos [data-look="neo"].node .outer-path{filter:drop-shadow( 1px 2px 2px rgba(185,185,185,1));}#d-er-06-turnos [data-look="neo"].node .neo-line path{stroke:#0F6E6E;filter:none;}#d-er-06-turnos [data-look="neo"].node circle{stroke:url(#d-er-06-turnos-gradient);filter:drop-shadow( 1px 2px 2px rgba(185,185,185,1));}#d-er-06-turnos [data-look="neo"].node circle .state-start{fill:#000000;}#d-er-06-turnos [data-look="neo"].icon-shape .icon{fill:url(#d-er-06-turnos-gradient);filter:drop-shadow( 1px 2px 2px rgba(185,185,185,1));}#d-er-06-turnos [data-look="neo"].icon-shape .icon-neo path{stroke:url(#d-er-06-turnos-gradient);filter:drop-shadow( 1px 2px 2px rgba(185,185,185,1));}#d-er-06-turnos :root{--mermaid-font-family:"trebuchet ms",verdana,arial,sans-serif;}</style><g><defs><marker id="d-er-06-turnos_er-onlyOneStart" class="marker onlyOne er" refX="0" refY="9" markerWidth="18" markerHeight="18" orient="auto"><path d="M9,0 L9,18 M15,0 L15,18"></path></marker></defs><defs><marker id="d-er-06-turnos_er-onlyOneEnd" class="marker onlyOne er" refX="18" refY="9" markerWidth="18" markerHeight="18" orient="auto"><path d="M3,0 L3,18 M9,0 L9,18"></path></marker></defs><defs><marker id="d-er-06-turnos_er-zeroOrOneStart" class="marker zeroOrOne er" refX="0" refY="9" markerWidth="30" markerHeight="18" orient="auto"><circle fill="white" cx="21" cy="9" r="6"></circle><path d="M9,0 L9,18"></path></marker></defs><defs><marker id="d-er-06-turnos_er-zeroOrOneEnd" class="marker zeroOrOne er" refX="30" refY="9" markerWidth="30" markerHeight="18" orient="auto"><circle fill="white" cx="9" cy="9" r="6"></circle><path d="M21,0 L21,18"></path></marker></defs><defs><marker id="d-er-06-turnos_er-oneOrMoreStart" class="marker oneOrMore er" refX="18" refY="18" markerWidth="45" markerHeight="36" orient="auto"><path d="M0,18 Q 18,0 36,18 Q 18,36 0,18 M42,9 L42,27"></path></marker></defs><defs><marker id="d-er-06-turnos_er-oneOrMoreEnd" class="marker oneOrMore er" refX="27" refY="18" markerWidth="45" markerHeight="36" orient="auto"><path d="M3,9 L3,27 M9,18 Q27,0 45,18 Q27,36 9,18"></path></marker></defs><defs><marker id="d-er-06-turnos_er-zeroOrMoreStart" class="marker zeroOrMore er" refX="18" refY="18" markerWidth="57" markerHeight="36" orient="auto"><circle fill="white" cx="48" cy="18" r="6"></circle><path d="M0,18 Q18,0 36,18 Q18,36 0,18"></path></marker></defs><defs><marker id="d-er-06-turnos_er-zeroOrMoreEnd" class="marker zeroOrMore er" refX="39" refY="18" markerWidth="57" markerHeight="36" orient="auto"><circle fill="white" cx="9" cy="18" r="6"></circle><path d="M21,18 Q39,0 57,18 Q39,36 21,18"></path></marker></defs><g class="root"><g class="clusters"></g><g class="edgePaths"><path d="M156.328,90.5L156.328,98.917C156.328,107.333,156.328,124.167,156.328,141C156.328,157.833,156.328,174.667,156.328,183.083L156.328,191.5" id="d-er-06-turnos-id_entity-ACOPIO-0_entity-JORNADA-1_0" class="edge-thickness-normal edge-pattern-solid relationshipLine" style="undefined;;;undefined" data-edge="true" data-et="edge" data-id="id_entity-ACOPIO-0_entity-JORNADA-1_0" data-points="W3sieCI6MTU2LjMyODEyNSwieSI6OTAuNX0seyJ4IjoxNTYuMzI4MTI1LCJ5IjoxNDF9LHsieCI6MTU2LjMyODEyNSwieSI6MTkxLjV9XQ==" data-look="classic" marker-start="url(#d-er-06-turnos_er-onlyOneStart)" marker-end="url(#d-er-06-turnos_er-zeroOrMoreEnd)"></path><path d="M156.328,521.5L156.328,529.917C156.328,538.333,156.328,555.167,156.328,572C156.328,588.833,156.328,605.667,156.328,614.083L156.328,622.5" id="d-er-06-turnos-id_entity-JORNADA-1_entity-RESERVA-2_1" class="edge-thickness-normal edge-pattern-solid relationshipLine" style="undefined;;;undefined" data-edge="true" data-et="edge" data-id="id_entity-JORNADA-1_entity-RESERVA-2_1" data-points="W3sieCI6MTU2LjMyODEyNSwieSI6NTIxLjV9LHsieCI6MTU2LjMyODEyNSwieSI6NTcyfSx7IngiOjE1Ni4zMjgxMjUsInkiOjYyMi41fV0=" data-look="classic" marker-start="url(#d-er-06-turnos_er-onlyOneStart)" marker-end="url(#d-er-06-turnos_er-zeroOrMoreEnd)"></path></g><g class="edgeLabels"><g class="edgeLabel" transform="translate(156.328125, 141)"><g class="label" data-id="id_entity-ACOPIO-0_entity-JORNADA-1_0" transform="translate(-12.046875, -10.5)"><foreignObject width="24.09375" height="21"><div xmlns="http://www.w3.org/1999/xhtml" class="labelBkg" style="display: table-cell; white-space: nowrap; line-height: 1.5; max-width: 200px; text-align: center;"><span class="edgeLabel"><p>abre</p></span></div></foreignObject></g></g><g class="edgeLabel" transform="translate(156.328125, 572)"><g class="label" data-id="id_entity-JORNADA-1_entity-RESERVA-2_1" transform="translate(-17.1015625, -10.5)"><foreignObject width="34.203125" height="21"><div xmlns="http://www.w3.org/1999/xhtml" class="labelBkg" style="display: table-cell; white-space: nowrap; line-height: 1.5; max-width: 200px; text-align: center;"><span class="edgeLabel"><p>recibe</p></span></div></foreignObject></g></g></g><g class="nodes"><g class="node default" id="d-er-06-turnos-entity-ACOPIO-0" data-look="classic" transform="translate(156.328125, 49.25)"><g class="outer-path" style=""><path d="M-112.71875 -41.25 L112.71875 -41.25 L112.71875 41.25 L-112.71875 41.25" stroke="none" stroke-width="0" fill="#E6F4F4"></path><path d="M-112.71875 -41.25 C-67.26091666065895 -41.25, -21.803083321317885 -41.25, 112.71875 -41.25 M-112.71875 -41.25 C-40.1180497791308 -41.25, 32.4826504417384 -41.25, 112.71875 -41.25 M112.71875 -41.25 C112.71875 -19.206107198595856, 112.71875 2.837785602808289, 112.71875 41.25 M112.71875 -41.25 C112.71875 -23.661407896523496, 112.71875 -6.072815793046992, 112.71875 41.25 M112.71875 41.25 C39.74166645520236 41.25, -33.23541708959527 41.25, -112.71875 41.25 M112.71875 41.25 C37.10472090642426 41.25, -38.509308187151476 41.25, -112.71875 41.25 M-112.71875 41.25 C-112.71875 10.042342226480109, -112.71875 -21.165315547039782, -112.71875 -41.25 M-112.71875 41.25 C-112.71875 9.699195246151433, -112.71875 -21.851609507697134, -112.71875 -41.25" stroke="#0F6E6E" stroke-width="1.3" fill="none" stroke-dasharray="0 0"></path></g><g style="" class="row-rect-odd"><path d="M-112.71875 0 L112.71875 0 L112.71875 41.25 L-112.71875 41.25" stroke="none" stroke-width="0" fill="hsl(180, 38.8888888889%, 100%)"></path><path d="M-112.71875 0 C-62.730149054332955 0, -12.74154810866591 0, 112.71875 0 M-112.71875 0 C-46.62997461817129 0, 19.458800763657422 0, 112.71875 0 M112.71875 0 C112.71875 12.742541580125788, 112.71875 25.485083160251577, 112.71875 41.25 M112.71875 0 C112.71875 14.909928596958343, 112.71875 29.819857193916686, 112.71875 41.25 M112.71875 41.25 C43.661664508702 41.25, -25.395420982595994 41.25, -112.71875 41.25 M112.71875 41.25 C45.687641334332014 41.25, -21.343467331335972 41.25, -112.71875 41.25 M-112.71875 41.25 C-112.71875 27.139369662518313, -112.71875 13.028739325036629, -112.71875 0 M-112.71875 41.25 C-112.71875 25.966960323007548, -112.71875 10.6839206460151, -112.71875 0" stroke="#0F6E6E" stroke-width="1.3" fill="none" stroke-dasharray="0 0"></path></g><g class="label name" transform="translate(-27.921875, -31.875)" style=""><foreignObject width="55.84375" height="22.5"><div xmlns="http://www.w3.org/1999/xhtml" style="display: table-cell; white-space: nowrap; line-height: 1.5; max-width: 161px; text-align: start;"><span class="nodeLabel"><p>ACOPIO</p></span></div></foreignObject></g><g class="label attribute-type" transform="translate(-100.21875, 9.375)" style=""><foreignObject width="26.671875" height="22.5"><div xmlns="http://www.w3.org/1999/xhtml" style="display: table-cell; white-space: nowrap; line-height: 1.5; max-width: 130px; text-align: start;"><span class="nodeLabel"><p>uuid</p></span></div></foreignObject></g><g class="label attribute-name" transform="translate(-48.546875, 9.375)" style=""><foreignObject width="11.671875" height="22.5"><div xmlns="http://www.w3.org/1999/xhtml" style="display: table-cell; white-space: nowrap; line-height: 1.5; max-width: 113px; text-align: start;"><span class="nodeLabel"><p>id</p></span></div></foreignObject></g><g class="label attribute-keys" transform="translate(-11.875, 9.375)" style=""><foreignObject width="19.1875" height="22.5"><div xmlns="http://www.w3.org/1999/xhtml" style="display: table-cell; white-space: nowrap; line-height: 1.5; max-width: 122px; text-align: start;"><span class="nodeLabel"><p>PK</p></span></div></foreignObject></g><g class="label attribute-comment" transform="translate(32.3125, 9.375)" style=""><foreignObject width="67.90625" height="22.5"><div xmlns="http://www.w3.org/1999/xhtml" style="display: table-cell; white-space: nowrap; line-height: 1.5; max-width: 173px; text-align: start;"><span class="nodeLabel"><p>clúster Red</p></span></div></foreignObject></g><g class="divider"><path d="M-112.71875 -0.00005 L-112.71875 0.00005 L112.71875 0.00005 L112.71875 -0.00005" stroke="none" stroke-width="0" fill="#E6F4F4" fill-rule="evenodd"></path><path d="M-112.71875 -0.00005 C-112.71875 -0.000014852033583494031, -112.71875 0.00002029593283301194, -112.71875 0.00005 M-112.71875 -0.00005 C-112.71875 -0.000028918025911806866, -112.71875 -0.00000783605182361373, -112.71875 0.00005 M-112.71875 0.00005 C-62.930250472755816 0.00005, -13.141750945511632 0.00005, 112.71875 0.00005 M-112.71875 0.00005 C-28.211256431062637 0.00005, 56.296237137874726 0.00005, 112.71875 0.00005 M112.71875 0.00005 C112.71875 0.000011466920307159204, 112.71875 -0.000027066159385681595, 112.71875 -0.00005 M112.71875 0.00005 C112.71875 0.000026678412507648887, 112.71875 0.0000033568250152977706, 112.71875 -0.00005 M112.71875 -0.00005 C44.05216639273226 -0.00005, -24.61441721453548 -0.00005, -112.71875 -0.00005 M112.71875 -0.00005 C23.51236388148162 -0.00005, -65.69402223703676 -0.00005, -112.71875 -0.00005" stroke="#0F6E6E" stroke-width="1.3" fill="none" stroke-dasharray="0 0"></path></g><g class="divider"><path d="M-61.046925 0 L-61.046825 0 L-61.046825 41.25 L-61.046925 41.25" stroke="none" stroke-width="0" fill="#E6F4F4" fill-rule="evenodd"></path><path d="M-61.046925 0 C-61.0468939528809 0, -61.0468629057618 0, -61.046825 0 M-61.046925 0 C-61.04689943198861 0, -61.04687386397721 0, -61.046825 0 M-61.046825 0 C-61.046825 14.44797734140663, -61.046825 28.89595468281326, -61.046825 41.25 M-61.046825 0 C-61.046825 10.18136993468077, -61.046825 20.36273986936154, -61.046825 41.25 M-61.046825 41.25 C-61.046859628054335 41.25, -61.046894256108665 41.25, -61.046925 41.25 M-61.046825 41.25 C-61.046846246653594 41.25, -61.04686749330719 41.25, -61.046925 41.25 M-61.046925 41.25 C-61.046925 25.478263773477394, -61.046925 9.706527546954785, -61.046925 0 M-61.046925 41.25 C-61.046925 30.753726244073295, -61.046925 20.25745248814659, -61.046925 0" stroke="#0F6E6E" stroke-width="1.3" fill="none" stroke-dasharray="0 0"></path></g><g class="divider"><path d="M-24.37505 0 L-24.37495 0 L-24.37495 41.25 L-24.37505 41.25" stroke="none" stroke-width="0" fill="#E6F4F4" fill-rule="evenodd"></path><path d="M-24.37505 0 C-24.375020695287382 0, -24.374991390574763 0, -24.37495 0 M-24.37505 0 C-24.375026785235686 0, -24.375003570471367 0, -24.37495 0 M-24.37495 0 C-24.37495 13.475905240136857, -24.37495 26.951810480273714, -24.37495 41.25 M-24.37495 0 C-24.37495 11.148532811419674, -24.37495 22.297065622839348, -24.37495 41.25 M-24.37495 41.25 C-24.37498598526135 41.25, -24.3750219705227 41.25, -24.37505 41.25 M-24.37495 41.25 C-24.374978418206577 41.25, -24.375006836413153 41.25, -24.37505 41.25 M-24.37505 41.25 C-24.37505 25.915230708659173, -24.37505 10.58046141731835, -24.37505 0 M-24.37505 41.25 C-24.37505 28.678223074022114, -24.37505 16.106446148044224, -24.37505 0" stroke="#0F6E6E" stroke-width="1.3" fill="none" stroke-dasharray="0 0"></path></g><g class="divider"><path d="M19.81245 0 L19.81255 0 L19.81255 41.25 L19.81245 41.25" stroke="none" stroke-width="0" fill="#E6F4F4" fill-rule="evenodd"></path><path d="M19.81245 0 C19.812477731258266 0, 19.812505462516533 0, 19.81255 0 M19.81245 0 C19.812470951989027 0, 19.812491903978056 0, 19.81255 0 M19.81255 0 C19.81255 10.027932928740233, 19.81255 20.055865857480466, 19.81255 41.25 M19.81255 0 C19.81255 15.569284665956749, 19.81255 31.138569331913498, 19.81255 41.25 M19.81255 41.25 C19.812527136888377 41.25, 19.812504273776756 41.25, 19.81245 41.25 M19.81255 41.25 C19.812513289319263 41.25, 19.812476578638524 41.25, 19.81245 41.25 M19.81245 41.25 C19.81245 28.13651498788615, 19.81245 15.0230299757723, 19.81245 0 M19.81245 41.25 C19.81245 25.419282531649635, 19.81245 9.588565063299267, 19.81245 0" stroke="#0F6E6E" stroke-width="1.3" fill="none" stroke-dasharray="0 0"></path></g><g class="divider"><path d="M-112.71875 -0.00005 L-112.71875 0.00005 L112.71875 0.00005 L112.71875 -0.00005" stroke="none" stroke-width="0" fill="#E6F4F4" fill-rule="evenodd"></path><path d="M-112.71875 -0.00005 C-112.71875 -0.000024531663322303595, -112.71875 9.366733553928122e-7, -112.71875 0.00005 M-112.71875 -0.00005 C-112.71875 -0.000021941805863283428, -112.71875 0.000006116388273433147, -112.71875 0.00005 M-112.71875 0.00005 C-49.95094087417237 0.00005, 12.816868251655265 0.00005, 112.71875 0.00005 M-112.71875 0.00005 C-51.06071512087415 0.00005, 10.5973197582517 0.00005, 112.71875 0.00005 M112.71875 0.00005 C112.71875 0.000014794558306034868, 112.71875 -0.000020410883387930266, 112.71875 -0.00005 M112.71875 0.00005 C112.71875 0.00001935288966987156, 112.71875 -0.000011294220660256882, 112.71875 -0.00005 M112.71875 -0.00005 C23.371075991828278 -0.00005, -65.97659801634344 -0.00005, -112.71875 -0.00005 M112.71875 -0.00005 C47.73023683501867 -0.00005, -17.258276329962655 -0.00005, -112.71875 -0.00005" stroke="#0F6E6E" stroke-width="1.3" fill="none" stroke-dasharray="0 0"></path></g></g><g class="node default" id="d-er-06-turnos-entity-JORNADA-1" data-look="classic" transform="translate(156.328125, 356.5)"><g class="outer-path" style=""><path d="M-148.328125 -165 L148.328125 -165 L148.328125 165 L-148.328125 165" stroke="none" stroke-width="0" fill="#E6F4F4"></path><path d="M-148.328125 -165 C-87.89947883948074 -165, -27.470832678961486 -165, 148.328125 -165 M-148.328125 -165 C-81.55448641766968 -165, -14.780847835339358 -165, 148.328125 -165 M148.328125 -165 C148.328125 -72.09837509111338, 148.328125 20.803249817773235, 148.328125 165 M148.328125 -165 C148.328125 -40.11686040243849, 148.328125 84.76627919512302, 148.328125 165 M148.328125 165 C86.04051713787064 165, 23.752909275741274 165, -148.328125 165 M148.328125 165 C43.46274458286646 165, -61.40263583426707 165, -148.328125 165 M-148.328125 165 C-148.328125 74.8534586398869, -148.328125 -15.29308272022621, -148.328125 -165 M-148.328125 165 C-148.328125 60.36899366693139, -148.328125 -44.262012666137224, -148.328125 -165" stroke="#0F6E6E" stroke-width="1.3" fill="none" stroke-dasharray="0 0"></path></g><g style="" class="row-rect-odd"><path d="M-148.328125 -123.75 L148.328125 -123.75 L148.328125 -82.5 L-148.328125 -82.5" stroke="none" stroke-width="0" fill="hsl(180, 38.8888888889%, 100%)"></path><path d="M-148.328125 -123.75 C-29.996025384359413 -123.75, 88.33607423128117 -123.75, 148.328125 -123.75 M-148.328125 -123.75 C-57.99371911930061 -123.75, 32.340686761398786 -123.75, 148.328125 -123.75 M148.328125 -123.75 C148.328125 -108.28558340541741, 148.328125 -92.82116681083481, 148.328125 -82.5 M148.328125 -123.75 C148.328125 -110.95090256679364, 148.328125 -98.1518051335873, 148.328125 -82.5 M148.328125 -82.5 C82.19848959949246 -82.5, 16.068854198984923 -82.5, -148.328125 -82.5 M148.328125 -82.5 C82.24009022601886 -82.5, 16.15205545203773 -82.5, -148.328125 -82.5 M-148.328125 -82.5 C-148.328125 -97.46661951581456, -148.328125 -112.43323903162911, -148.328125 -123.75 M-148.328125 -82.5 C-148.328125 -93.76787198444643, -148.328125 -105.03574396889285, -148.328125 -123.75" stroke="#0F6E6E" stroke-width="1.3" fill="none" stroke-dasharray="0 0"></path></g><g style="" class="row-rect-even"><path d="M-148.328125 -82.5 L148.328125 -82.5 L148.328125 -41.25 L-148.328125 -41.25" stroke="none" stroke-width="0" fill="hsl(180, 38.8888888889%, 97.9411764706%)"></path><path d="M-148.328125 -82.5 C-37.73325870995451 -82.5, 72.86160758009098 -82.5, 148.328125 -82.5 M-148.328125 -82.5 C-57.037512179835545 -82.5, 34.25310064032891 -82.5, 148.328125 -82.5 M148.328125 -82.5 C148.328125 -70.00668465556961, 148.328125 -57.513369311139236, 148.328125 -41.25 M148.328125 -82.5 C148.328125 -66.02473667162468, 148.328125 -49.54947334324935, 148.328125 -41.25 M148.328125 -41.25 C38.12047587850182 -41.25, -72.08717324299636 -41.25, -148.328125 -41.25 M148.328125 -41.25 C54.35705551870045 -41.25, -39.6140139625991 -41.25, -148.328125 -41.25 M-148.328125 -41.25 C-148.328125 -49.90752639672605, -148.328125 -58.5650527934521, -148.328125 -82.5 M-148.328125 -41.25 C-148.328125 -57.44181462121942, -148.328125 -73.63362924243884, -148.328125 -82.5" stroke="#0F6E6E" stroke-width="1.3" fill="none" stroke-dasharray="0 0"></path></g><g style="" class="row-rect-odd"><path d="M-148.328125 -41.25 L148.328125 -41.25 L148.328125 0 L-148.328125 0" stroke="none" stroke-width="0" fill="hsl(180, 38.8888888889%, 100%)"></path><path d="M-148.328125 -41.25 C-72.34177986895047 -41.25, 3.6445652620990643 -41.25, 148.328125 -41.25 M-148.328125 -41.25 C-43.43555419603135 -41.25, 61.457016607937305 -41.25, 148.328125 -41.25 M148.328125 -41.25 C148.328125 -27.47599769379535, 148.328125 -13.701995387590696, 148.328125 0 M148.328125 -41.25 C148.328125 -25.25655018501825, 148.328125 -9.263100370036494, 148.328125 0 M148.328125 0 C42.62198613458622 0, -63.084152730827554 0, -148.328125 0 M148.328125 0 C30.425551526551956 0, -87.47702194689609 0, -148.328125 0 M-148.328125 0 C-148.328125 -8.353802260915465, -148.328125 -16.70760452183093, -148.328125 -41.25 M-148.328125 0 C-148.328125 -14.014669252362046, -148.328125 -28.02933850472409, -148.328125 -41.25" stroke="#0F6E6E" stroke-width="1.3" fill="none" stroke-dasharray="0 0"></path></g><g style="" class="row-rect-even"><path d="M-148.328125 0 L148.328125 0 L148.328125 41.25 L-148.328125 41.25" stroke="none" stroke-width="0" fill="hsl(180, 38.8888888889%, 97.9411764706%)"></path><path d="M-148.328125 0 C-82.3236311933231 0, -16.31913738664619 0, 148.328125 0 M-148.328125 0 C-62.94818078635984 0, 22.431763427280316 0, 148.328125 0 M148.328125 0 C148.328125 9.872203066613771, 148.328125 19.744406133227542, 148.328125 41.25 M148.328125 0 C148.328125 13.54559481348814, 148.328125 27.09118962697628, 148.328125 41.25 M148.328125 41.25 C30.348329235936845 41.25, -87.63146652812631 41.25, -148.328125 41.25 M148.328125 41.25 C53.32519309219734 41.25, -41.67773881560532 41.25, -148.328125 41.25 M-148.328125 41.25 C-148.328125 25.6130949721696, -148.328125 9.976189944339193, -148.328125 0 M-148.328125 41.25 C-148.328125 29.788573399020663, -148.328125 18.327146798041323, -148.328125 0" stroke="#0F6E6E" stroke-width="1.3" fill="none" stroke-dasharray="0 0"></path></g><g style="" class="row-rect-odd"><path d="M-148.328125 41.25 L148.328125 41.25 L148.328125 82.5 L-148.328125 82.5" stroke="none" stroke-width="0" fill="hsl(180, 38.8888888889%, 100%)"></path><path d="M-148.328125 41.25 C-33.52182116717459 41.25, 81.28448266565081 41.25, 148.328125 41.25 M-148.328125 41.25 C-33.46534074493205 41.25, 81.3974435101359 41.25, 148.328125 41.25 M148.328125 41.25 C148.328125 53.31959039799015, 148.328125 65.3891807959803, 148.328125 82.5 M148.328125 41.25 C148.328125 51.8382556176781, 148.328125 62.42651123535621, 148.328125 82.5 M148.328125 82.5 C60.454859117557646 82.5, -27.418406764884708 82.5, -148.328125 82.5 M148.328125 82.5 C79.71657355231956 82.5, 11.105022104639119 82.5, -148.328125 82.5 M-148.328125 82.5 C-148.328125 71.97951116063712, -148.328125 61.459022321274226, -148.328125 41.25 M-148.328125 82.5 C-148.328125 71.6284714527879, -148.328125 60.756942905575805, -148.328125 41.25" stroke="#0F6E6E" stroke-width="1.3" fill="none" stroke-dasharray="0 0"></path></g><g style="" class="row-rect-even"><path d="M-148.328125 82.5 L148.328125 82.5 L148.328125 123.75 L-148.328125 123.75" stroke="none" stroke-width="0" fill="hsl(180, 38.8888888889%, 97.9411764706%)"></path><path d="M-148.328125 82.5 C-69.49474072742734 82.5, 9.338643545145317 82.5, 148.328125 82.5 M-148.328125 82.5 C-82.04824647356494 82.5, -15.768367947129889 82.5, 148.328125 82.5 M148.328125 82.5 C148.328125 96.29091406453243, 148.328125 110.08182812906486, 148.328125 123.75 M148.328125 82.5 C148.328125 98.4297356561654, 148.328125 114.35947131233081, 148.328125 123.75 M148.328125 123.75 C63.63710410386457 123.75, -21.053916792270854 123.75, -148.328125 123.75 M148.328125 123.75 C79.1407978818392 123.75, 9.95347076367841 123.75, -148.328125 123.75 M-148.328125 123.75 C-148.328125 112.32736918790586, -148.328125 100.90473837581172, -148.328125 82.5 M-148.328125 123.75 C-148.328125 108.20469294145381, -148.328125 92.65938588290763, -148.328125 82.5" stroke="#0F6E6E" stroke-width="1.3" fill="none" stroke-dasharray="0 0"></path></g><g style="" class="row-rect-odd"><path d="M-148.328125 123.75 L148.328125 123.75 L148.328125 165 L-148.328125 165" stroke="none" stroke-width="0" fill="hsl(180, 38.8888888889%, 100%)"></path><path d="M-148.328125 123.75 C-49.20311902165065 123.75, 49.9218869566987 123.75, 148.328125 123.75 M-148.328125 123.75 C-34.4820986186821 123.75, 79.3639277626358 123.75, 148.328125 123.75 M148.328125 123.75 C148.328125 133.06709995077108, 148.328125 142.38419990154216, 148.328125 165 M148.328125 123.75 C148.328125 133.97233939081735, 148.328125 144.1946787816347, 148.328125 165 M148.328125 165 C52.68040761923098 165, -42.96730976153805 165, -148.328125 165 M148.328125 165 C36.2521432940096 165, -75.8238384119808 165, -148.328125 165 M-148.328125 165 C-148.328125 154.9532706391962, -148.328125 144.90654127839244, -148.328125 123.75 M-148.328125 165 C-148.328125 154.0288370163197, -148.328125 143.0576740326394, -148.328125 123.75" stroke="#0F6E6E" stroke-width="1.3" fill="none" stroke-dasharray="0 0"></path></g><g class="label name" transform="translate(-35.0078125, -155.625)" style=""><foreignObject width="70.015625" height="22.5"><div xmlns="http://www.w3.org/1999/xhtml" style="display: table-cell; white-space: nowrap; line-height: 1.5; max-width: 175px; text-align: start;"><span class="nodeLabel"><p>JORNADA</p></span></div></foreignObject></g><g class="label attribute-type" transform="translate(-135.828125, -114.375)" style=""><foreignObject width="26.671875" height="22.5"><div xmlns="http://www.w3.org/1999/xhtml" style="display: table-cell; white-space: nowrap; line-height: 1.5; max-width: 130px; text-align: start;"><span class="nodeLabel"><p>uuid</p></span></div></foreignObject></g><g class="label attribute-name" transform="translate(-37.5, -114.375)" style=""><foreignObject width="11.671875" height="22.5"><div xmlns="http://www.w3.org/1999/xhtml" style="display: table-cell; white-space: nowrap; line-height: 1.5; max-width: 113px; text-align: start;"><span class="nodeLabel"><p>id</p></span></div></foreignObject></g><g class="label attribute-keys" transform="translate(116.640625, -114.375)" style=""><foreignObject width="19.1875" height="22.5"><div xmlns="http://www.w3.org/1999/xhtml" style="display: table-cell; white-space: nowrap; line-height: 1.5; max-width: 122px; text-align: start;"><span class="nodeLabel"><p>PK</p></span></div></foreignObject></g><g class="label attribute-comment" transform="translate(160.828125, -114.375)" style=""><foreignObject width="0" height="0"><div xmlns="http://www.w3.org/1999/xhtml" style="display: table-cell; white-space: nowrap; line-height: 1.5; max-width: 100px; text-align: start;"><span class="nodeLabel"></span></div></foreignObject></g><g class="label attribute-type" transform="translate(-135.828125, -73.125)" style=""><foreignObject width="26.671875" height="22.5"><div xmlns="http://www.w3.org/1999/xhtml" style="display: table-cell; white-space: nowrap; line-height: 1.5; max-width: 130px; text-align: start;"><span class="nodeLabel"><p>uuid</p></span></div></foreignObject></g><g class="label attribute-name" transform="translate(-37.5, -73.125)" style=""><foreignObject width="59.15625" height="22.5"><div xmlns="http://www.w3.org/1999/xhtml" style="display: table-cell; white-space: nowrap; line-height: 1.5; max-width: 164px; text-align: start;"><span class="nodeLabel"><p>acopio_id</p></span></div></foreignObject></g><g class="label attribute-keys" transform="translate(116.640625, -73.125)" style=""><foreignObject width="19.1875" height="22.5"><div xmlns="http://www.w3.org/1999/xhtml" style="display: table-cell; white-space: nowrap; line-height: 1.5; max-width: 122px; text-align: start;"><span class="nodeLabel"><p>FK</p></span></div></foreignObject></g><g class="label attribute-comment" transform="translate(160.828125, -73.125)" style=""><foreignObject width="0" height="0"><div xmlns="http://www.w3.org/1999/xhtml" style="display: table-cell; white-space: nowrap; line-height: 1.5; max-width: 100px; text-align: start;"><span class="nodeLabel"></span></div></foreignObject></g><g class="label attribute-type" transform="translate(-135.828125, -31.875)" style=""><foreignObject width="73.328125" height="22.5"><div xmlns="http://www.w3.org/1999/xhtml" style="display: table-cell; white-space: nowrap; line-height: 1.5; max-width: 180px; text-align: start;"><span class="nodeLabel"><p>timestamptz</p></span></div></foreignObject></g><g class="label attribute-name" transform="translate(-37.5, -31.875)" style=""><foreignObject width="34.171875" height="22.5"><div xmlns="http://www.w3.org/1999/xhtml" style="display: table-cell; white-space: nowrap; line-height: 1.5; max-width: 136px; text-align: start;"><span class="nodeLabel"><p>inicio</p></span></div></foreignObject></g><g class="label attribute-keys" transform="translate(116.640625, -31.875)" style=""><foreignObject width="0" height="0"><div xmlns="http://www.w3.org/1999/xhtml" style="display: table-cell; white-space: nowrap; line-height: 1.5; max-width: 100px; text-align: start;"><span class="nodeLabel"></span></div></foreignObject></g><g class="label attribute-comment" transform="translate(160.828125, -31.875)" style=""><foreignObject width="0" height="0"><div xmlns="http://www.w3.org/1999/xhtml" style="display: table-cell; white-space: nowrap; line-height: 1.5; max-width: 100px; text-align: start;"><span class="nodeLabel"></span></div></foreignObject></g><g class="label attribute-type" transform="translate(-135.828125, 9.375)" style=""><foreignObject width="73.328125" height="22.5"><div xmlns="http://www.w3.org/1999/xhtml" style="display: table-cell; white-space: nowrap; line-height: 1.5; max-width: 180px; text-align: start;"><span class="nodeLabel"><p>timestamptz</p></span></div></foreignObject></g><g class="label attribute-name" transform="translate(-37.5, 9.375)" style=""><foreignObject width="16.671875" height="22.5"><div xmlns="http://www.w3.org/1999/xhtml" style="display: table-cell; white-space: nowrap; line-height: 1.5; max-width: 119px; text-align: start;"><span class="nodeLabel"><p>fin</p></span></div></foreignObject></g><g class="label attribute-keys" transform="translate(116.640625, 9.375)" style=""><foreignObject width="0" height="0"><div xmlns="http://www.w3.org/1999/xhtml" style="display: table-cell; white-space: nowrap; line-height: 1.5; max-width: 100px; text-align: start;"><span class="nodeLabel"></span></div></foreignObject></g><g class="label attribute-comment" transform="translate(160.828125, 9.375)" style=""><foreignObject width="0" height="0"><div xmlns="http://www.w3.org/1999/xhtml" style="display: table-cell; white-space: nowrap; line-height: 1.5; max-width: 100px; text-align: start;"><span class="nodeLabel"></span></div></foreignObject></g><g class="label attribute-type" transform="translate(-135.828125, 50.625)" style=""><foreignObject width="15.84375" height="22.5"><div xmlns="http://www.w3.org/1999/xhtml" style="display: table-cell; white-space: nowrap; line-height: 1.5; max-width: 117px; text-align: start;"><span class="nodeLabel"><p>int</p></span></div></foreignObject></g><g class="label attribute-name" transform="translate(-37.5, 50.625)" style=""><foreignObject width="85.828125" height="22.5"><div xmlns="http://www.w3.org/1999/xhtml" style="display: table-cell; white-space: nowrap; line-height: 1.5; max-width: 192px; text-align: start;"><span class="nodeLabel"><p>cupo_maximo</p></span></div></foreignObject></g><g class="label attribute-keys" transform="translate(116.640625, 50.625)" style=""><foreignObject width="0" height="0"><div xmlns="http://www.w3.org/1999/xhtml" style="display: table-cell; white-space: nowrap; line-height: 1.5; max-width: 100px; text-align: start;"><span class="nodeLabel"></span></div></foreignObject></g><g class="label attribute-comment" transform="translate(160.828125, 50.625)" style=""><foreignObject width="0" height="0"><div xmlns="http://www.w3.org/1999/xhtml" style="display: table-cell; white-space: nowrap; line-height: 1.5; max-width: 100px; text-align: start;"><span class="nodeLabel"></span></div></foreignObject></g><g class="label attribute-type" transform="translate(-135.828125, 91.875)" style=""><foreignObject width="15.84375" height="22.5"><div xmlns="http://www.w3.org/1999/xhtml" style="display: table-cell; white-space: nowrap; line-height: 1.5; max-width: 117px; text-align: start;"><span class="nodeLabel"><p>int</p></span></div></foreignObject></g><g class="label attribute-name" transform="translate(-37.5, 91.875)" style=""><foreignObject width="129.140625" height="22.5"><div xmlns="http://www.w3.org/1999/xhtml" style="display: table-cell; white-space: nowrap; line-height: 1.5; max-width: 238px; text-align: start;"><span class="nodeLabel"><p>cupos_ajuste_manual</p></span></div></foreignObject></g><g class="label attribute-keys" transform="translate(116.640625, 91.875)" style=""><foreignObject width="0" height="0"><div xmlns="http://www.w3.org/1999/xhtml" style="display: table-cell; white-space: nowrap; line-height: 1.5; max-width: 100px; text-align: start;"><span class="nodeLabel"></span></div></foreignObject></g><g class="label attribute-comment" transform="translate(160.828125, 91.875)" style=""><foreignObject width="0" height="0"><div xmlns="http://www.w3.org/1999/xhtml" style="display: table-cell; white-space: nowrap; line-height: 1.5; max-width: 100px; text-align: start;"><span class="nodeLabel"></span></div></foreignObject></g><g class="label attribute-type" transform="translate(-135.828125, 133.125)" style=""><foreignObject width="22.5" height="22.5"><div xmlns="http://www.w3.org/1999/xhtml" style="display: table-cell; white-space: nowrap; line-height: 1.5; max-width: 126px; text-align: start;"><span class="nodeLabel"><p>text</p></span></div></foreignObject></g><g class="label attribute-name" transform="translate(-37.5, 133.125)" style=""><foreignObject width="38.328125" height="22.5"><div xmlns="http://www.w3.org/1999/xhtml" style="display: table-cell; white-space: nowrap; line-height: 1.5; max-width: 141px; text-align: start;"><span class="nodeLabel"><p>estado</p></span></div></foreignObject></g><g class="label attribute-keys" transform="translate(116.640625, 133.125)" style=""><foreignObject width="0" height="0"><div xmlns="http://www.w3.org/1999/xhtml" style="display: table-cell; white-space: nowrap; line-height: 1.5; max-width: 100px; text-align: start;"><span class="nodeLabel"></span></div></foreignObject></g><g class="label attribute-comment" transform="translate(160.828125, 133.125)" style=""><foreignObject width="0" height="0"><div xmlns="http://www.w3.org/1999/xhtml" style="display: table-cell; white-space: nowrap; line-height: 1.5; max-width: 100px; text-align: start;"><span class="nodeLabel"></span></div></foreignObject></g><g class="divider"><path d="M-148.328125 -123.75005 L-148.328125 -123.74995 L148.328125 -123.74995 L148.328125 -123.75005" stroke="none" stroke-width="0" fill="#E6F4F4" fill-rule="evenodd"></path><path d="M-148.328125 -123.75005 C-148.328125 -123.75002151442116, -148.328125 -123.74999302884231, -148.328125 -123.74995 M-148.328125 -123.75005 C-148.328125 -123.75001499693641, -148.328125 -123.74997999387283, -148.328125 -123.74995 M-148.328125 -123.74995 C-65.86042566770416 -123.74995, 16.607273664591673 -123.74995, 148.328125 -123.74995 M-148.328125 -123.74995 C-64.02109575520294 -123.74995, 20.28593348959413 -123.74995, 148.328125 -123.74995 M148.328125 -123.74995 C148.328125 -123.74998952683715, 148.328125 -123.75002905367431, 148.328125 -123.75005 M148.328125 -123.74995 C148.328125 -123.74998416449587, 148.328125 -123.75001832899174, 148.328125 -123.75005 M148.328125 -123.75005 C41.355921220622605 -123.75005, -65.61628255875479 -123.75005, -148.328125 -123.75005 M148.328125 -123.75005 C74.94643041613998 -123.75005, 1.5647358322799505 -123.75005, -148.328125 -123.75005" stroke="#0F6E6E" stroke-width="1.3" fill="none" stroke-dasharray="0 0"></path></g><g class="divider"><path d="M-50.00005 -123.75 L-49.99995 -123.75 L-49.99995 165 L-50.00005 165" stroke="none" stroke-width="0" fill="#E6F4F4" fill-rule="evenodd"></path><path d="M-50.00005 -123.75 C-50.00001745069607 -123.75, -49.999984901392146 -123.75, -49.99995 -123.75 M-50.00005 -123.75 C-50.000013981988914 -123.75, -49.999977963977834 -123.75, -49.99995 -123.75 M-49.99995 -123.75 C-49.99995 -15.350356643373388, -49.99995 93.04928671325322, -49.99995 165 M-49.99995 -123.75 C-49.99995 -11.080629907307753, -49.99995 101.5887401853845, -49.99995 165 M-49.99995 165 C-49.99998432459926 165, -50.000018649198516 165, -50.00005 165 M-49.99995 165 C-49.99998699517793 165, -50.000023990355864 165, -50.00005 165 M-50.00005 165 C-50.00005 77.32492502749922, -50.00005 -10.350149945001561, -50.00005 -123.75 M-50.00005 165 C-50.00005 71.2945036412918, -50.00005 -22.410992717416406, -50.00005 -123.75" stroke="#0F6E6E" stroke-width="1.3" fill="none" stroke-dasharray="0 0"></path></g><g class="divider"><path d="M104.140575 -123.75 L104.140675 -123.75 L104.140675 165 L104.140575 165" stroke="none" stroke-width="0" fill="#E6F4F4" fill-rule="evenodd"></path><path d="M104.140575 -123.75 C104.14060265156857 -123.75, 104.14063030313714 -123.75, 104.140675 -123.75 M104.140575 -123.75 C104.14060211020035 -123.75, 104.1406292204007 -123.75, 104.140675 -123.75 M104.140675 -123.75 C104.140675 -43.42814120781587, 104.140675 36.89371758436826, 104.140675 165 M104.140675 -123.75 C104.140675 -22.051764330638264, 104.140675 79.64647133872347, 104.140675 165 M104.140675 165 C104.14064718961403 165, 104.14061937922806 165, 104.140575 165 M104.140675 165 C104.1406352440272 165, 104.1405954880544 165, 104.140575 165 M104.140575 165 C104.140575 59.9517121060192, 104.140575 -45.0965757879616, 104.140575 -123.75 M104.140575 165 C104.140575 73.92781489938932, 104.140575 -17.144370201221363, 104.140575 -123.75" stroke="#0F6E6E" stroke-width="1.3" fill="none" stroke-dasharray="0 0"></path></g><g class="divider"><path d="M-148.328125 -123.75005 L-148.328125 -123.74995 L148.328125 -123.74995 L148.328125 -123.75005" stroke="none" stroke-width="0" fill="#E6F4F4" fill-rule="evenodd"></path><path d="M-148.328125 -123.75005 C-148.328125 -123.75001824307878, -148.328125 -123.74998648615757, -148.328125 -123.74995 M-148.328125 -123.75005 C-148.328125 -123.75001324909033, -148.328125 -123.74997649818066, -148.328125 -123.74995 M-148.328125 -123.74995 C-30.71644419844702 -123.74995, 86.89523660310596 -123.74995, 148.328125 -123.74995 M-148.328125 -123.74995 C-56.32204428243335 -123.74995, 35.684036435133294 -123.74995, 148.328125 -123.74995 M148.328125 -123.74995 C148.328125 -123.74997363451799, 148.328125 -123.74999726903597, 148.328125 -123.75005 M148.328125 -123.74995 C148.328125 -123.7499710431663, 148.328125 -123.74999208633261, 148.328125 -123.75005 M148.328125 -123.75005 C54.79051355779629 -123.75005, -38.747097884407424 -123.75005, -148.328125 -123.75005 M148.328125 -123.75005 C34.73677727252152 -123.75005, -78.85457045495696 -123.75005, -148.328125 -123.75005" stroke="#0F6E6E" stroke-width="1.3" fill="none" stroke-dasharray="0 0"></path></g></g><g class="node default" id="d-er-06-turnos-entity-RESERVA-2" data-look="classic" transform="translate(156.328125, 746.25)"><g class="outer-path" style=""><path d="M-93.75 -123.75 L93.75 -123.75 L93.75 123.75 L-93.75 123.75" stroke="none" stroke-width="0" fill="#E6F4F4"></path><path d="M-93.75 -123.75 C-52.16409196209876 -123.75, -10.578183924197518 -123.75, 93.75 -123.75 M-93.75 -123.75 C-41.46618475151793 -123.75, 10.817630496964142 -123.75, 93.75 -123.75 M93.75 -123.75 C93.75 -49.33164640695445, 93.75 25.086707186091104, 93.75 123.75 M93.75 -123.75 C93.75 -36.43213402405793, 93.75 50.88573195188414, 93.75 123.75 M93.75 123.75 C26.411935069443743 123.75, -40.926129861112514 123.75, -93.75 123.75 M93.75 123.75 C49.22602627435228 123.75, 4.7020525487045575 123.75, -93.75 123.75 M-93.75 123.75 C-93.75 47.239870456378085, -93.75 -29.27025908724383, -93.75 -123.75 M-93.75 123.75 C-93.75 59.19394795206908, -93.75 -5.362104095861838, -93.75 -123.75" stroke="#0F6E6E" stroke-width="1.3" fill="none" stroke-dasharray="0 0"></path></g><g style="" class="row-rect-odd"><path d="M-93.75 -82.5 L93.75 -82.5 L93.75 -41.25 L-93.75 -41.25" stroke="none" stroke-width="0" fill="hsl(180, 38.8888888889%, 100%)"></path><path d="M-93.75 -82.5 C-39.84223381496765 -82.5, 14.065532370064702 -82.5, 93.75 -82.5 M-93.75 -82.5 C-43.438675056204666 -82.5, 6.8726498875906685 -82.5, 93.75 -82.5 M93.75 -82.5 C93.75 -66.25766054964582, 93.75 -50.01532109929164, 93.75 -41.25 M93.75 -82.5 C93.75 -73.7078433130683, 93.75 -64.9156866261366, 93.75 -41.25 M93.75 -41.25 C55.70754047246174 -41.25, 17.665080944923474 -41.25, -93.75 -41.25 M93.75 -41.25 C29.12278314142418 -41.25, -35.50443371715164 -41.25, -93.75 -41.25 M-93.75 -41.25 C-93.75 -50.452783497850795, -93.75 -59.65556699570159, -93.75 -82.5 M-93.75 -41.25 C-93.75 -52.036784686754174, -93.75 -62.823569373508356, -93.75 -82.5" stroke="#0F6E6E" stroke-width="1.3" fill="none" stroke-dasharray="0 0"></path></g><g style="" class="row-rect-even"><path d="M-93.75 -41.25 L93.75 -41.25 L93.75 0 L-93.75 0" stroke="none" stroke-width="0" fill="hsl(180, 38.8888888889%, 97.9411764706%)"></path><path d="M-93.75 -41.25 C-35.652523754090595 -41.25, 22.44495249181881 -41.25, 93.75 -41.25 M-93.75 -41.25 C-35.80039377556161 -41.25, 22.14921244887678 -41.25, 93.75 -41.25 M93.75 -41.25 C93.75 -27.798767448303, 93.75 -14.347534896606, 93.75 0 M93.75 -41.25 C93.75 -25.954121092251405, 93.75 -10.65824218450281, 93.75 0 M93.75 0 C51.664814381987654 0, 9.579628763975307 0, -93.75 0 M93.75 0 C20.151699563544426 0, -53.44660087291115 0, -93.75 0 M-93.75 0 C-93.75 -9.579437807548377, -93.75 -19.158875615096754, -93.75 -41.25 M-93.75 0 C-93.75 -11.602040005441124, -93.75 -23.204080010882247, -93.75 -41.25" stroke="#0F6E6E" stroke-width="1.3" fill="none" stroke-dasharray="0 0"></path></g><g style="" class="row-rect-odd"><path d="M-93.75 0 L93.75 0 L93.75 41.25 L-93.75 41.25" stroke="none" stroke-width="0" fill="hsl(180, 38.8888888889%, 100%)"></path><path d="M-93.75 0 C-44.30751980168193 0, 5.134960396636146 0, 93.75 0 M-93.75 0 C-36.75918976771925 0, 20.2316204645615 0, 93.75 0 M93.75 0 C93.75 13.308057533290109, 93.75 26.616115066580218, 93.75 41.25 M93.75 0 C93.75 12.590389223256585, 93.75 25.18077844651317, 93.75 41.25 M93.75 41.25 C27.070433411827977 41.25, -39.609133176344045 41.25, -93.75 41.25 M93.75 41.25 C36.70664848006985 41.25, -20.336703039860296 41.25, -93.75 41.25 M-93.75 41.25 C-93.75 26.4772919004848, -93.75 11.704583800969605, -93.75 0 M-93.75 41.25 C-93.75 24.834865242110677, -93.75 8.419730484221354, -93.75 0" stroke="#0F6E6E" stroke-width="1.3" fill="none" stroke-dasharray="0 0"></path></g><g style="" class="row-rect-even"><path d="M-93.75 41.25 L93.75 41.25 L93.75 82.5 L-93.75 82.5" stroke="none" stroke-width="0" fill="hsl(180, 38.8888888889%, 97.9411764706%)"></path><path d="M-93.75 41.25 C-22.021278044061177 41.25, 49.70744391187765 41.25, 93.75 41.25 M-93.75 41.25 C-39.47120234496788 41.25, 14.807595310064244 41.25, 93.75 41.25 M93.75 41.25 C93.75 55.22399763192128, 93.75 69.19799526384256, 93.75 82.5 M93.75 41.25 C93.75 54.334213765348736, 93.75 67.41842753069747, 93.75 82.5 M93.75 82.5 C37.05497267408268 82.5, -19.640054651834646 82.5, -93.75 82.5 M93.75 82.5 C39.166940376472176 82.5, -15.416119247055647 82.5, -93.75 82.5 M-93.75 82.5 C-93.75 70.42155553446302, -93.75 58.343111068926035, -93.75 41.25 M-93.75 82.5 C-93.75 69.05291725828502, -93.75 55.60583451657004, -93.75 41.25" stroke="#0F6E6E" stroke-width="1.3" fill="none" stroke-dasharray="0 0"></path></g><g style="" class="row-rect-odd"><path d="M-93.75 82.5 L93.75 82.5 L93.75 123.75 L-93.75 123.75" stroke="none" stroke-width="0" fill="hsl(180, 38.8888888889%, 100%)"></path><path d="M-93.75 82.5 C-26.67751186384166 82.5, 40.39497627231668 82.5, 93.75 82.5 M-93.75 82.5 C-52.63265999863886 82.5, -11.515319997277714 82.5, 93.75 82.5 M93.75 82.5 C93.75 91.28506690101904, 93.75 100.07013380203809, 93.75 123.75 M93.75 82.5 C93.75 92.19594849798608, 93.75 101.89189699597216, 93.75 123.75 M93.75 123.75 C47.21334743068268 123.75, 0.6766948613653625 123.75, -93.75 123.75 M93.75 123.75 C34.83045722547568 123.75, -24.089085549048633 123.75, -93.75 123.75 M-93.75 123.75 C-93.75 111.51647654148933, -93.75 99.28295308297864, -93.75 82.5 M-93.75 123.75 C-93.75 108.04579393308278, -93.75 92.34158786616555, -93.75 82.5" stroke="#0F6E6E" stroke-width="1.3" fill="none" stroke-dasharray="0 0"></path></g><g class="label name" transform="translate(-32.609375, -114.375)" style=""><foreignObject width="65.21875" height="22.5"><div xmlns="http://www.w3.org/1999/xhtml" style="display: table-cell; white-space: nowrap; line-height: 1.5; max-width: 171px; text-align: start;"><span class="nodeLabel"><p>RESERVA</p></span></div></foreignObject></g><g class="label attribute-type" transform="translate(-81.25, -73.125)" style=""><foreignObject width="26.671875" height="22.5"><div xmlns="http://www.w3.org/1999/xhtml" style="display: table-cell; white-space: nowrap; line-height: 1.5; max-width: 130px; text-align: start;"><span class="nodeLabel"><p>uuid</p></span></div></foreignObject></g><g class="label attribute-name" transform="translate(-29.578125, -73.125)" style=""><foreignObject width="11.671875" height="22.5"><div xmlns="http://www.w3.org/1999/xhtml" style="display: table-cell; white-space: nowrap; line-height: 1.5; max-width: 113px; text-align: start;"><span class="nodeLabel"><p>id</p></span></div></foreignObject></g><g class="label attribute-keys" transform="translate(59.578125, -73.125)" style=""><foreignObject width="19.1875" height="22.5"><div xmlns="http://www.w3.org/1999/xhtml" style="display: table-cell; white-space: nowrap; line-height: 1.5; max-width: 122px; text-align: start;"><span class="nodeLabel"><p>PK</p></span></div></foreignObject></g><g class="label attribute-comment" transform="translate(106.25, -73.125)" style=""><foreignObject width="0" height="0"><div xmlns="http://www.w3.org/1999/xhtml" style="display: table-cell; white-space: nowrap; line-height: 1.5; max-width: 100px; text-align: start;"><span class="nodeLabel"></span></div></foreignObject></g><g class="label attribute-type" transform="translate(-81.25, -31.875)" style=""><foreignObject width="26.671875" height="22.5"><div xmlns="http://www.w3.org/1999/xhtml" style="display: table-cell; white-space: nowrap; line-height: 1.5; max-width: 130px; text-align: start;"><span class="nodeLabel"><p>uuid</p></span></div></foreignObject></g><g class="label attribute-name" transform="translate(-29.578125, -31.875)" style=""><foreignObject width="64.15625" height="22.5"><div xmlns="http://www.w3.org/1999/xhtml" style="display: table-cell; white-space: nowrap; line-height: 1.5; max-width: 171px; text-align: start;"><span class="nodeLabel"><p>jornada_id</p></span></div></foreignObject></g><g class="label attribute-keys" transform="translate(59.578125, -31.875)" style=""><foreignObject width="19.1875" height="22.5"><div xmlns="http://www.w3.org/1999/xhtml" style="display: table-cell; white-space: nowrap; line-height: 1.5; max-width: 122px; text-align: start;"><span class="nodeLabel"><p>FK</p></span></div></foreignObject></g><g class="label attribute-comment" transform="translate(106.25, -31.875)" style=""><foreignObject width="0" height="0"><div xmlns="http://www.w3.org/1999/xhtml" style="display: table-cell; white-space: nowrap; line-height: 1.5; max-width: 100px; text-align: start;"><span class="nodeLabel"></span></div></foreignObject></g><g class="label attribute-type" transform="translate(-81.25, 9.375)" style=""><foreignObject width="22.5" height="22.5"><div xmlns="http://www.w3.org/1999/xhtml" style="display: table-cell; white-space: nowrap; line-height: 1.5; max-width: 126px; text-align: start;"><span class="nodeLabel"><p>text</p></span></div></foreignObject></g><g class="label attribute-name" transform="translate(-29.578125, 9.375)" style=""><foreignObject width="38.3125" height="22.5"><div xmlns="http://www.w3.org/1999/xhtml" style="display: table-cell; white-space: nowrap; line-height: 1.5; max-width: 141px; text-align: start;"><span class="nodeLabel"><p>correo</p></span></div></foreignObject></g><g class="label attribute-keys" transform="translate(59.578125, 9.375)" style=""><foreignObject width="0" height="0"><div xmlns="http://www.w3.org/1999/xhtml" style="display: table-cell; white-space: nowrap; line-height: 1.5; max-width: 100px; text-align: start;"><span class="nodeLabel"></span></div></foreignObject></g><g class="label attribute-comment" transform="translate(106.25, 9.375)" style=""><foreignObject width="0" height="0"><div xmlns="http://www.w3.org/1999/xhtml" style="display: table-cell; white-space: nowrap; line-height: 1.5; max-width: 100px; text-align: start;"><span class="nodeLabel"></span></div></foreignObject></g><g class="label attribute-type" transform="translate(-81.25, 50.625)" style=""><foreignObject width="22.5" height="22.5"><div xmlns="http://www.w3.org/1999/xhtml" style="display: table-cell; white-space: nowrap; line-height: 1.5; max-width: 126px; text-align: start;"><span class="nodeLabel"><p>text</p></span></div></foreignObject></g><g class="label attribute-name" transform="translate(-29.578125, 50.625)" style=""><foreignObject width="40.828125" height="22.5"><div xmlns="http://www.w3.org/1999/xhtml" style="display: table-cell; white-space: nowrap; line-height: 1.5; max-width: 144px; text-align: start;"><span class="nodeLabel"><p>codigo</p></span></div></foreignObject></g><g class="label attribute-keys" transform="translate(59.578125, 50.625)" style=""><foreignObject width="21.671875" height="22.5"><div xmlns="http://www.w3.org/1999/xhtml" style="display: table-cell; white-space: nowrap; line-height: 1.5; max-width: 125px; text-align: start;"><span class="nodeLabel"><p>UK</p></span></div></foreignObject></g><g class="label attribute-comment" transform="translate(106.25, 50.625)" style=""><foreignObject width="0" height="0"><div xmlns="http://www.w3.org/1999/xhtml" style="display: table-cell; white-space: nowrap; line-height: 1.5; max-width: 100px; text-align: start;"><span class="nodeLabel"></span></div></foreignObject></g><g class="label attribute-type" transform="translate(-81.25, 91.875)" style=""><foreignObject width="22.5" height="22.5"><div xmlns="http://www.w3.org/1999/xhtml" style="display: table-cell; white-space: nowrap; line-height: 1.5; max-width: 126px; text-align: start;"><span class="nodeLabel"><p>text</p></span></div></foreignObject></g><g class="label attribute-name" transform="translate(-29.578125, 91.875)" style=""><foreignObject width="38.328125" height="22.5"><div xmlns="http://www.w3.org/1999/xhtml" style="display: table-cell; white-space: nowrap; line-height: 1.5; max-width: 141px; text-align: start;"><span class="nodeLabel"><p>estado</p></span></div></foreignObject></g><g class="label attribute-keys" transform="translate(59.578125, 91.875)" style=""><foreignObject width="0" height="0"><div xmlns="http://www.w3.org/1999/xhtml" style="display: table-cell; white-space: nowrap; line-height: 1.5; max-width: 100px; text-align: start;"><span class="nodeLabel"></span></div></foreignObject></g><g class="label attribute-comment" transform="translate(106.25, 91.875)" style=""><foreignObject width="0" height="0"><div xmlns="http://www.w3.org/1999/xhtml" style="display: table-cell; white-space: nowrap; line-height: 1.5; max-width: 100px; text-align: start;"><span class="nodeLabel"></span></div></foreignObject></g><g class="divider"><path d="M-93.75 -82.50005 L-93.75 -82.49995 L93.75 -82.49995 L93.75 -82.50005" stroke="none" stroke-width="0" fill="#E6F4F4" fill-rule="evenodd"></path><path d="M-93.75 -82.50005 C-93.75 -82.50001824996251, -93.75 -82.49998649992501, -93.75 -82.49995 M-93.75 -82.50005 C-93.75 -82.50002940115631, -93.75 -82.50000880231262, -93.75 -82.49995 M-93.75 -82.49995 C-25.603823199591957 -82.49995, 42.542353600816085 -82.49995, 93.75 -82.49995 M-93.75 -82.49995 C-37.10158772955661 -82.49995, 19.546824540886774 -82.49995, 93.75 -82.49995 M93.75 -82.49995 C93.75 -82.4999774954151, 93.75 -82.50000499083019, 93.75 -82.50005 M93.75 -82.49995 C93.75 -82.49997000535852, 93.75 -82.49999001071706, 93.75 -82.50005 M93.75 -82.50005 C31.59139144024242 -82.50005, -30.567217119515163 -82.50005, -93.75 -82.50005 M93.75 -82.50005 C50.335656690317684 -82.50005, 6.921313380635368 -82.50005, -93.75 -82.50005" stroke="#0F6E6E" stroke-width="1.3" fill="none" stroke-dasharray="0 0"></path></g><g class="divider"><path d="M-42.078175 -82.5 L-42.078075 -82.5 L-42.078075 123.75 L-42.078175 123.75" stroke="none" stroke-width="0" fill="#E6F4F4" fill-rule="evenodd"></path><path d="M-42.078175 -82.5 C-42.07814679663219 -82.5, -42.07811859326438 -82.5, -42.078075 -82.5 M-42.078175 -82.5 C-42.07815352369815 -82.5, -42.0781320473963 -82.5, -42.078075 -82.5 M-42.078075 -82.5 C-42.078075 -10.915560372364482, -42.078075 60.66887925527104, -42.078075 123.75 M-42.078075 -82.5 C-42.078075 -4.930255168301187, -42.078075 72.63948966339763, -42.078075 123.75 M-42.078075 123.75 C-42.078103288459936 123.75, -42.078131576919866 123.75, -42.078175 123.75 M-42.078075 123.75 C-42.07811375322622 123.75, -42.07815250645243 123.75, -42.078175 123.75 M-42.078175 123.75 C-42.078175 65.65741108287101, -42.078175 7.564822165742015, -42.078175 -82.5 M-42.078175 123.75 C-42.078175 75.68014495410492, -42.078175 27.610289908209822, -42.078175 -82.5" stroke="#0F6E6E" stroke-width="1.3" fill="none" stroke-dasharray="0 0"></path></g><g class="divider"><path d="M47.078075 -82.5 L47.078175 -82.5 L47.078175 123.75 L47.078075 123.75" stroke="none" stroke-width="0" fill="#E6F4F4" fill-rule="evenodd"></path><path d="M47.078075 -82.5 C47.07810100838829 -82.5, 47.07812701677657 -82.5, 47.078175 -82.5 M47.078075 -82.5 C47.07811112861911 -82.5, 47.07814725723822 -82.5, 47.078175 -82.5 M47.078175 -82.5 C47.078175 -3.615601805880729, 47.078175 75.26879638823854, 47.078175 123.75 M47.078175 -82.5 C47.078175 -32.00929442803483, 47.078175 18.481411143930345, 47.078175 123.75 M47.078175 123.75 C47.0781443189432 123.75, 47.0781136378864 123.75, 47.078075 123.75 M47.078175 123.75 C47.078142405994406 123.75, 47.0781098119888 123.75, 47.078075 123.75 M47.078075 123.75 C47.078075 76.04628083372126, 47.078075 28.342561667442496, 47.078075 -82.5 M47.078075 123.75 C47.078075 77.02623246894714, 47.078075 30.30246493789427, 47.078075 -82.5" stroke="#0F6E6E" stroke-width="1.3" fill="none" stroke-dasharray="0 0"></path></g><g class="divider"><path d="M-93.75 -82.50005 L-93.75 -82.49995 L93.75 -82.49995 L93.75 -82.50005" stroke="none" stroke-width="0" fill="#E6F4F4" fill-rule="evenodd"></path><path d="M-93.75 -82.50005 C-93.75 -82.50001736346361, -93.75 -82.49998472692722, -93.75 -82.49995 M-93.75 -82.50005 C-93.75 -82.50002311128286, -93.75 -82.4999962225657, -93.75 -82.49995 M-93.75 -82.49995 C-18.75520685208032 -82.49995, 56.23958629583936 -82.49995, 93.75 -82.49995 M-93.75 -82.49995 C-31.596986812281493 -82.49995, 30.556026375437014 -82.49995, 93.75 -82.49995 M93.75 -82.49995 C93.75 -82.49998695229434, 93.75 -82.50002390458866, 93.75 -82.50005 M93.75 -82.49995 C93.75 -82.49997716226116, 93.75 -82.50000432452232, 93.75 -82.50005 M93.75 -82.50005 C48.25650626114134 -82.50005, 2.763012522282679 -82.50005, -93.75 -82.50005 M93.75 -82.50005 C34.364734818989675 -82.50005, -25.02053036202065 -82.50005, -93.75 -82.50005" stroke="#0F6E6E" stroke-width="1.3" fill="none" stroke-dasharray="0 0"></path></g></g></g></g></g><defs><filter id="d-er-06-turnos-drop-shadow" height="130%" width="130%"><feDropShadow dx="4" dy="4" stdDeviation="0" flood-opacity="0.06" flood-color="#000000"></feDropShadow></filter></defs><defs><filter id="d-er-06-turnos-drop-shadow-small" height="150%" width="150%"><feDropShadow dx="2" dy="2" stdDeviation="0" flood-opacity="0.06" flood-color="#000000"></feDropShadow></filter></defs><linearGradient id="d-er-06-turnos-gradient" gradientUnits="objectBoundingBox" x1="0%" y1="0%" x2="100%" y2="0%"><stop offset="0%" stop-color="#0F6E6E" stop-opacity="1"></stop><stop offset="100%" stop-color="hsl(180, 1.7721518987%, 74.5098039216%)" stop-opacity="1"></stop></linearGradient></svg>